<?xml version="1.0" encoding="UTF-8" standalone="no"?>
<!DOCTYPE svg PUBLIC "-//W3C//DTD SVG 1.1//EN"
 "http://www.w3.org/Graphics/SVG/1.1/DTD/svg11.dtd">
<!-- Generated by graphviz version 2.38.0 (20140413.2041)
 -->
<!-- Title: G Pages: 1 -->
<svg width="535pt" height="2065pt"
 viewBox="0.00 0.00 401.00 1549.00" xmlns="http://www.w3.org/2000/svg" xmlns:xlink="http://www.w3.org/1999/xlink">
<g id="graph0" class="graph" transform="scale(1.33333 1.33333) rotate(0) translate(4 1545)">
<title>G</title>
<polygon fill="white" stroke="none" points="-4,4 -4,-1545 397,-1545 397,4 -4,4"/>
<!-- 1868653592328 -->
<g id="node1" class="node"><title>1868653592328</title>
<polygon fill="none" stroke="black" points="33,-1494.5 33,-1540.5 360,-1540.5 360,-1494.5 33,-1494.5"/>
<text text-anchor="middle" x="96" y="-1513.8" font-family="Times New Roman,serif" font-size="14.00">input_1: InputLayer</text>
<polyline fill="none" stroke="black" points="159,-1494.5 159,-1540.5 "/>
<text text-anchor="middle" x="187" y="-1525.3" font-family="Times New Roman,serif" font-size="14.00">input:</text>
<polyline fill="none" stroke="black" points="159,-1517.5 215,-1517.5 "/>
<text text-anchor="middle" x="187" y="-1502.3" font-family="Times New Roman,serif" font-size="14.00">output:</text>
<polyline fill="none" stroke="black" points="215,-1494.5 215,-1540.5 "/>
<text text-anchor="middle" x="287.5" y="-1525.3" font-family="Times New Roman,serif" font-size="14.00">(None, None, None, 3)</text>
<polyline fill="none" stroke="black" points="215,-1517.5 360,-1517.5 "/>
<text text-anchor="middle" x="287.5" y="-1502.3" font-family="Times New Roman,serif" font-size="14.00">(None, None, None, 3)</text>
</g>
<!-- 1868882416520 -->
<g id="node2" class="node"><title>1868882416520</title>
<polygon fill="none" stroke="black" points="17,-1411.5 17,-1457.5 376,-1457.5 376,-1411.5 17,-1411.5"/>
<text text-anchor="middle" x="92.5" y="-1430.8" font-family="Times New Roman,serif" font-size="14.00">block1_conv1: Conv2D</text>
<polyline fill="none" stroke="black" points="168,-1411.5 168,-1457.5 "/>
<text text-anchor="middle" x="196" y="-1442.3" font-family="Times New Roman,serif" font-size="14.00">input:</text>
<polyline fill="none" stroke="black" points="168,-1434.5 224,-1434.5 "/>
<text text-anchor="middle" x="196" y="-1419.3" font-family="Times New Roman,serif" font-size="14.00">output:</text>
<polyline fill="none" stroke="black" points="224,-1411.5 224,-1457.5 "/>
<text text-anchor="middle" x="300" y="-1442.3" font-family="Times New Roman,serif" font-size="14.00">(None, None, None, 3)</text>
<polyline fill="none" stroke="black" points="224,-1434.5 376,-1434.5 "/>
<text text-anchor="middle" x="300" y="-1419.3" font-family="Times New Roman,serif" font-size="14.00">(None, None, None, 64)</text>
</g>
<!-- 1868653592328&#45;&gt;1868882416520 -->
<g id="edge1" class="edge"><title>1868653592328&#45;&gt;1868882416520</title>
<path fill="none" stroke="black" d="M196.5,-1494.37C196.5,-1486.15 196.5,-1476.66 196.5,-1467.73"/>
<polygon fill="black" stroke="black" points="200,-1467.61 196.5,-1457.61 193,-1467.61 200,-1467.61"/>
</g>
<!-- 1868882417544 -->
<g id="node3" class="node"><title>1868882417544</title>
<polygon fill="none" stroke="black" points="17,-1328.5 17,-1374.5 376,-1374.5 376,-1328.5 17,-1328.5"/>
<text text-anchor="middle" x="92.5" y="-1347.8" font-family="Times New Roman,serif" font-size="14.00">block1_conv2: Conv2D</text>
<polyline fill="none" stroke="black" points="168,-1328.5 168,-1374.5 "/>
<text text-anchor="middle" x="196" y="-1359.3" font-family="Times New Roman,serif" font-size="14.00">input:</text>
<polyline fill="none" stroke="black" points="168,-1351.5 224,-1351.5 "/>
<text text-anchor="middle" x="196" y="-1336.3" font-family="Times New Roman,serif" font-size="14.00">output:</text>
<polyline fill="none" stroke="black" points="224,-1328.5 224,-1374.5 "/>
<text text-anchor="middle" x="300" y="-1359.3" font-family="Times New Roman,serif" font-size="14.00">(None, None, None, 64)</text>
<polyline fill="none" stroke="black" points="224,-1351.5 376,-1351.5 "/>
<text text-anchor="middle" x="300" y="-1336.3" font-family="Times New Roman,serif" font-size="14.00">(None, None, None, 64)</text>
</g>
<!-- 1868882416520&#45;&gt;1868882417544 -->
<g id="edge2" class="edge"><title>1868882416520&#45;&gt;1868882417544</title>
<path fill="none" stroke="black" d="M196.5,-1411.37C196.5,-1403.15 196.5,-1393.66 196.5,-1384.73"/>
<polygon fill="black" stroke="black" points="200,-1384.61 196.5,-1374.61 193,-1384.61 200,-1384.61"/>
</g>
<!-- 1868899357896 -->
<g id="node4" class="node"><title>1868899357896</title>
<polygon fill="none" stroke="black" points="3,-1245.5 3,-1291.5 390,-1291.5 390,-1245.5 3,-1245.5"/>
<text text-anchor="middle" x="92.5" y="-1264.8" font-family="Times New Roman,serif" font-size="14.00">block1_pool: MaxPooling2D</text>
<polyline fill="none" stroke="black" points="182,-1245.5 182,-1291.5 "/>
<text text-anchor="middle" x="210" y="-1276.3" font-family="Times New Roman,serif" font-size="14.00">input:</text>
<polyline fill="none" stroke="black" points="182,-1268.5 238,-1268.5 "/>
<text text-anchor="middle" x="210" y="-1253.3" font-family="Times New Roman,serif" font-size="14.00">output:</text>
<polyline fill="none" stroke="black" points="238,-1245.5 238,-1291.5 "/>
<text text-anchor="middle" x="314" y="-1276.3" font-family="Times New Roman,serif" font-size="14.00">(None, None, None, 64)</text>
<polyline fill="none" stroke="black" points="238,-1268.5 390,-1268.5 "/>
<text text-anchor="middle" x="314" y="-1253.3" font-family="Times New Roman,serif" font-size="14.00">(None, None, None, 64)</text>
</g>
<!-- 1868882417544&#45;&gt;1868899357896 -->
<g id="edge3" class="edge"><title>1868882417544&#45;&gt;1868899357896</title>
<path fill="none" stroke="black" d="M196.5,-1328.37C196.5,-1320.15 196.5,-1310.66 196.5,-1301.73"/>
<polygon fill="black" stroke="black" points="200,-1301.61 196.5,-1291.61 193,-1301.61 200,-1301.61"/>
</g>
<!-- 1868899552200 -->
<g id="node5" class="node"><title>1868899552200</title>
<polygon fill="none" stroke="black" points="14,-1162.5 14,-1208.5 379,-1208.5 379,-1162.5 14,-1162.5"/>
<text text-anchor="middle" x="89.5" y="-1181.8" font-family="Times New Roman,serif" font-size="14.00">block2_conv1: Conv2D</text>
<polyline fill="none" stroke="black" points="165,-1162.5 165,-1208.5 "/>
<text text-anchor="middle" x="193" y="-1193.3" font-family="Times New Roman,serif" font-size="14.00">input:</text>
<polyline fill="none" stroke="black" points="165,-1185.5 221,-1185.5 "/>
<text text-anchor="middle" x="193" y="-1170.3" font-family="Times New Roman,serif" font-size="14.00">output:</text>
<polyline fill="none" stroke="black" points="221,-1162.5 221,-1208.5 "/>
<text text-anchor="middle" x="300" y="-1193.3" font-family="Times New Roman,serif" font-size="14.00">(None, None, None, 64)</text>
<polyline fill="none" stroke="black" points="221,-1185.5 379,-1185.5 "/>
<text text-anchor="middle" x="300" y="-1170.3" font-family="Times New Roman,serif" font-size="14.00">(None, None, None, 128)</text>
</g>
<!-- 1868899357896&#45;&gt;1868899552200 -->
<g id="edge4" class="edge"><title>1868899357896&#45;&gt;1868899552200</title>
<path fill="none" stroke="black" d="M196.5,-1245.37C196.5,-1237.15 196.5,-1227.66 196.5,-1218.73"/>
<polygon fill="black" stroke="black" points="200,-1218.61 196.5,-1208.61 193,-1218.61 200,-1218.61"/>
</g>
<!-- 1868899437576 -->
<g id="node6" class="node"><title>1868899437576</title>
<polygon fill="none" stroke="black" points="14,-1079.5 14,-1125.5 379,-1125.5 379,-1079.5 14,-1079.5"/>
<text text-anchor="middle" x="89.5" y="-1098.8" font-family="Times New Roman,serif" font-size="14.00">block2_conv2: Conv2D</text>
<polyline fill="none" stroke="black" points="165,-1079.5 165,-1125.5 "/>
<text text-anchor="middle" x="193" y="-1110.3" font-family="Times New Roman,serif" font-size="14.00">input:</text>
<polyline fill="none" stroke="black" points="165,-1102.5 221,-1102.5 "/>
<text text-anchor="middle" x="193" y="-1087.3" font-family="Times New Roman,serif" font-size="14.00">output:</text>
<polyline fill="none" stroke="black" points="221,-1079.5 221,-1125.5 "/>
<text text-anchor="middle" x="300" y="-1110.3" font-family="Times New Roman,serif" font-size="14.00">(None, None, None, 128)</text>
<polyline fill="none" stroke="black" points="221,-1102.5 379,-1102.5 "/>
<text text-anchor="middle" x="300" y="-1087.3" font-family="Times New Roman,serif" font-size="14.00">(None, None, None, 128)</text>
</g>
<!-- 1868899552200&#45;&gt;1868899437576 -->
<g id="edge5" class="edge"><title>1868899552200&#45;&gt;1868899437576</title>
<path fill="none" stroke="black" d="M196.5,-1162.37C196.5,-1154.15 196.5,-1144.66 196.5,-1135.73"/>
<polygon fill="black" stroke="black" points="200,-1135.61 196.5,-1125.61 193,-1135.61 200,-1135.61"/>
</g>
<!-- 1868899776584 -->
<g id="node7" class="node"><title>1868899776584</title>
<polygon fill="none" stroke="black" points="0,-996.5 0,-1042.5 393,-1042.5 393,-996.5 0,-996.5"/>
<text text-anchor="middle" x="89.5" y="-1015.8" font-family="Times New Roman,serif" font-size="14.00">block2_pool: MaxPooling2D</text>
<polyline fill="none" stroke="black" points="179,-996.5 179,-1042.5 "/>
<text text-anchor="middle" x="207" y="-1027.3" font-family="Times New Roman,serif" font-size="14.00">input:</text>
<polyline fill="none" stroke="black" points="179,-1019.5 235,-1019.5 "/>
<text text-anchor="middle" x="207" y="-1004.3" font-family="Times New Roman,serif" font-size="14.00">output:</text>
<polyline fill="none" stroke="black" points="235,-996.5 235,-1042.5 "/>
<text text-anchor="middle" x="314" y="-1027.3" font-family="Times New Roman,serif" font-size="14.00">(None, None, None, 128)</text>
<polyline fill="none" stroke="black" points="235,-1019.5 393,-1019.5 "/>
<text text-anchor="middle" x="314" y="-1004.3" font-family="Times New Roman,serif" font-size="14.00">(None, None, None, 128)</text>
</g>
<!-- 1868899437576&#45;&gt;1868899776584 -->
<g id="edge6" class="edge"><title>1868899437576&#45;&gt;1868899776584</title>
<path fill="none" stroke="black" d="M196.5,-1079.37C196.5,-1071.15 196.5,-1061.66 196.5,-1052.73"/>
<polygon fill="black" stroke="black" points="200,-1052.61 196.5,-1042.61 193,-1052.61 200,-1052.61"/>
</g>
<!-- 1868899707208 -->
<g id="node8" class="node"><title>1868899707208</title>
<polygon fill="none" stroke="black" points="14,-913.5 14,-959.5 379,-959.5 379,-913.5 14,-913.5"/>
<text text-anchor="middle" x="89.5" y="-932.8" font-family="Times New Roman,serif" font-size="14.00">block3_conv1: Conv2D</text>
<polyline fill="none" stroke="black" points="165,-913.5 165,-959.5 "/>
<text text-anchor="middle" x="193" y="-944.3" font-family="Times New Roman,serif" font-size="14.00">input:</text>
<polyline fill="none" stroke="black" points="165,-936.5 221,-936.5 "/>
<text text-anchor="middle" x="193" y="-921.3" font-family="Times New Roman,serif" font-size="14.00">output:</text>
<polyline fill="none" stroke="black" points="221,-913.5 221,-959.5 "/>
<text text-anchor="middle" x="300" y="-944.3" font-family="Times New Roman,serif" font-size="14.00">(None, None, None, 128)</text>
<polyline fill="none" stroke="black" points="221,-936.5 379,-936.5 "/>
<text text-anchor="middle" x="300" y="-921.3" font-family="Times New Roman,serif" font-size="14.00">(None, None, None, 256)</text>
</g>
<!-- 1868899776584&#45;&gt;1868899707208 -->
<g id="edge7" class="edge"><title>1868899776584&#45;&gt;1868899707208</title>
<path fill="none" stroke="black" d="M196.5,-996.366C196.5,-988.152 196.5,-978.658 196.5,-969.725"/>
<polygon fill="black" stroke="black" points="200,-969.607 196.5,-959.607 193,-969.607 200,-969.607"/>
</g>
<!-- 1868899875272 -->
<g id="node9" class="node"><title>1868899875272</title>
<polygon fill="none" stroke="black" points="14,-830.5 14,-876.5 379,-876.5 379,-830.5 14,-830.5"/>
<text text-anchor="middle" x="89.5" y="-849.8" font-family="Times New Roman,serif" font-size="14.00">block3_conv2: Conv2D</text>
<polyline fill="none" stroke="black" points="165,-830.5 165,-876.5 "/>
<text text-anchor="middle" x="193" y="-861.3" font-family="Times New Roman,serif" font-size="14.00">input:</text>
<polyline fill="none" stroke="black" points="165,-853.5 221,-853.5 "/>
<text text-anchor="middle" x="193" y="-838.3" font-family="Times New Roman,serif" font-size="14.00">output:</text>
<polyline fill="none" stroke="black" points="221,-830.5 221,-876.5 "/>
<text text-anchor="middle" x="300" y="-861.3" font-family="Times New Roman,serif" font-size="14.00">(None, None, None, 256)</text>
<polyline fill="none" stroke="black" points="221,-853.5 379,-853.5 "/>
<text text-anchor="middle" x="300" y="-838.3" font-family="Times New Roman,serif" font-size="14.00">(None, None, None, 256)</text>
</g>
<!-- 1868899707208&#45;&gt;1868899875272 -->
<g id="edge8" class="edge"><title>1868899707208&#45;&gt;1868899875272</title>
<path fill="none" stroke="black" d="M196.5,-913.366C196.5,-905.152 196.5,-895.658 196.5,-886.725"/>
<polygon fill="black" stroke="black" points="200,-886.607 196.5,-876.607 193,-886.607 200,-886.607"/>
</g>
<!-- 1868900219208 -->
<g id="node10" class="node"><title>1868900219208</title>
<polygon fill="none" stroke="black" points="14,-747.5 14,-793.5 379,-793.5 379,-747.5 14,-747.5"/>
<text text-anchor="middle" x="89.5" y="-766.8" font-family="Times New Roman,serif" font-size="14.00">block3_conv3: Conv2D</text>
<polyline fill="none" stroke="black" points="165,-747.5 165,-793.5 "/>
<text text-anchor="middle" x="193" y="-778.3" font-family="Times New Roman,serif" font-size="14.00">input:</text>
<polyline fill="none" stroke="black" points="165,-770.5 221,-770.5 "/>
<text text-anchor="middle" x="193" y="-755.3" font-family="Times New Roman,serif" font-size="14.00">output:</text>
<polyline fill="none" stroke="black" points="221,-747.5 221,-793.5 "/>
<text text-anchor="middle" x="300" y="-778.3" font-family="Times New Roman,serif" font-size="14.00">(None, None, None, 256)</text>
<polyline fill="none" stroke="black" points="221,-770.5 379,-770.5 "/>
<text text-anchor="middle" x="300" y="-755.3" font-family="Times New Roman,serif" font-size="14.00">(None, None, None, 256)</text>
</g>
<!-- 1868899875272&#45;&gt;1868900219208 -->
<g id="edge9" class="edge"><title>1868899875272&#45;&gt;1868900219208</title>
<path fill="none" stroke="black" d="M196.5,-830.366C196.5,-822.152 196.5,-812.658 196.5,-803.725"/>
<polygon fill="black" stroke="black" points="200,-803.607 196.5,-793.607 193,-803.607 200,-803.607"/>
</g>
<!-- 1868900406792 -->
<g id="node11" class="node"><title>1868900406792</title>
<polygon fill="none" stroke="black" points="0,-664.5 0,-710.5 393,-710.5 393,-664.5 0,-664.5"/>
<text text-anchor="middle" x="89.5" y="-683.8" font-family="Times New Roman,serif" font-size="14.00">block3_pool: MaxPooling2D</text>
<polyline fill="none" stroke="black" points="179,-664.5 179,-710.5 "/>
<text text-anchor="middle" x="207" y="-695.3" font-family="Times New Roman,serif" font-size="14.00">input:</text>
<polyline fill="none" stroke="black" points="179,-687.5 235,-687.5 "/>
<text text-anchor="middle" x="207" y="-672.3" font-family="Times New Roman,serif" font-size="14.00">output:</text>
<polyline fill="none" stroke="black" points="235,-664.5 235,-710.5 "/>
<text text-anchor="middle" x="314" y="-695.3" font-family="Times New Roman,serif" font-size="14.00">(None, None, None, 256)</text>
<polyline fill="none" stroke="black" points="235,-687.5 393,-687.5 "/>
<text text-anchor="middle" x="314" y="-672.3" font-family="Times New Roman,serif" font-size="14.00">(None, None, None, 256)</text>
</g>
<!-- 1868900219208&#45;&gt;1868900406792 -->
<g id="edge10" class="edge"><title>1868900219208&#45;&gt;1868900406792</title>
<path fill="none" stroke="black" d="M196.5,-747.366C196.5,-739.152 196.5,-729.658 196.5,-720.725"/>
<polygon fill="black" stroke="black" points="200,-720.607 196.5,-710.607 193,-720.607 200,-720.607"/>
</g>
<!-- 1868900304072 -->
<g id="node12" class="node"><title>1868900304072</title>
<polygon fill="none" stroke="black" points="14,-581.5 14,-627.5 379,-627.5 379,-581.5 14,-581.5"/>
<text text-anchor="middle" x="89.5" y="-600.8" font-family="Times New Roman,serif" font-size="14.00">block4_conv1: Conv2D</text>
<polyline fill="none" stroke="black" points="165,-581.5 165,-627.5 "/>
<text text-anchor="middle" x="193" y="-612.3" font-family="Times New Roman,serif" font-size="14.00">input:</text>
<polyline fill="none" stroke="black" points="165,-604.5 221,-604.5 "/>
<text text-anchor="middle" x="193" y="-589.3" font-family="Times New Roman,serif" font-size="14.00">output:</text>
<polyline fill="none" stroke="black" points="221,-581.5 221,-627.5 "/>
<text text-anchor="middle" x="300" y="-612.3" font-family="Times New Roman,serif" font-size="14.00">(None, None, None, 256)</text>
<polyline fill="none" stroke="black" points="221,-604.5 379,-604.5 "/>
<text text-anchor="middle" x="300" y="-589.3" font-family="Times New Roman,serif" font-size="14.00">(None, None, None, 512)</text>
</g>
<!-- 1868900406792&#45;&gt;1868900304072 -->
<g id="edge11" class="edge"><title>1868900406792&#45;&gt;1868900304072</title>
<path fill="none" stroke="black" d="M196.5,-664.366C196.5,-656.152 196.5,-646.658 196.5,-637.725"/>
<polygon fill="black" stroke="black" points="200,-637.607 196.5,-627.607 193,-637.607 200,-637.607"/>
</g>
<!-- 1868900499400 -->
<g id="node13" class="node"><title>1868900499400</title>
<polygon fill="none" stroke="black" points="14,-498.5 14,-544.5 379,-544.5 379,-498.5 14,-498.5"/>
<text text-anchor="middle" x="89.5" y="-517.8" font-family="Times New Roman,serif" font-size="14.00">block4_conv2: Conv2D</text>
<polyline fill="none" stroke="black" points="165,-498.5 165,-544.5 "/>
<text text-anchor="middle" x="193" y="-529.3" font-family="Times New Roman,serif" font-size="14.00">input:</text>
<polyline fill="none" stroke="black" points="165,-521.5 221,-521.5 "/>
<text text-anchor="middle" x="193" y="-506.3" font-family="Times New Roman,serif" font-size="14.00">output:</text>
<polyline fill="none" stroke="black" points="221,-498.5 221,-544.5 "/>
<text text-anchor="middle" x="300" y="-529.3" font-family="Times New Roman,serif" font-size="14.00">(None, None, None, 512)</text>
<polyline fill="none" stroke="black" points="221,-521.5 379,-521.5 "/>
<text text-anchor="middle" x="300" y="-506.3" font-family="Times New Roman,serif" font-size="14.00">(None, None, None, 512)</text>
</g>
<!-- 1868900304072&#45;&gt;1868900499400 -->
<g id="edge12" class="edge"><title>1868900304072&#45;&gt;1868900499400</title>
<path fill="none" stroke="black" d="M196.5,-581.366C196.5,-573.152 196.5,-563.658 196.5,-554.725"/>
<polygon fill="black" stroke="black" points="200,-554.607 196.5,-544.607 193,-554.607 200,-554.607"/>
</g>
<!-- 1868900778440 -->
<g id="node14" class="node"><title>1868900778440</title>
<polygon fill="none" stroke="black" points="14,-415.5 14,-461.5 379,-461.5 379,-415.5 14,-415.5"/>
<text text-anchor="middle" x="89.5" y="-434.8" font-family="Times New Roman,serif" font-size="14.00">block4_conv3: Conv2D</text>
<polyline fill="none" stroke="black" points="165,-415.5 165,-461.5 "/>
<text text-anchor="middle" x="193" y="-446.3" font-family="Times New Roman,serif" font-size="14.00">input:</text>
<polyline fill="none" stroke="black" points="165,-438.5 221,-438.5 "/>
<text text-anchor="middle" x="193" y="-423.3" font-family="Times New Roman,serif" font-size="14.00">output:</text>
<polyline fill="none" stroke="black" points="221,-415.5 221,-461.5 "/>
<text text-anchor="middle" x="300" y="-446.3" font-family="Times New Roman,serif" font-size="14.00">(None, None, None, 512)</text>
<polyline fill="none" stroke="black" points="221,-438.5 379,-438.5 "/>
<text text-anchor="middle" x="300" y="-423.3" font-family="Times New Roman,serif" font-size="14.00">(None, None, None, 512)</text>
</g>
<!-- 1868900499400&#45;&gt;1868900778440 -->
<g id="edge13" class="edge"><title>1868900499400&#45;&gt;1868900778440</title>
<path fill="none" stroke="black" d="M196.5,-498.366C196.5,-490.152 196.5,-480.658 196.5,-471.725"/>
<polygon fill="black" stroke="black" points="200,-471.607 196.5,-461.607 193,-471.607 200,-471.607"/>
</g>
<!-- 1868901029512 -->
<g id="node15" class="node"><title>1868901029512</title>
<polygon fill="none" stroke="black" points="0,-332.5 0,-378.5 393,-378.5 393,-332.5 0,-332.5"/>
<text text-anchor="middle" x="89.5" y="-351.8" font-family="Times New Roman,serif" font-size="14.00">block4_pool: MaxPooling2D</text>
<polyline fill="none" stroke="black" points="179,-332.5 179,-378.5 "/>
<text text-anchor="middle" x="207" y="-363.3" font-family="Times New Roman,serif" font-size="14.00">input:</text>
<polyline fill="none" stroke="black" points="179,-355.5 235,-355.5 "/>
<text text-anchor="middle" x="207" y="-340.3" font-family="Times New Roman,serif" font-size="14.00">output:</text>
<polyline fill="none" stroke="black" points="235,-332.5 235,-378.5 "/>
<text text-anchor="middle" x="314" y="-363.3" font-family="Times New Roman,serif" font-size="14.00">(None, None, None, 512)</text>
<polyline fill="none" stroke="black" points="235,-355.5 393,-355.5 "/>
<text text-anchor="middle" x="314" y="-340.3" font-family="Times New Roman,serif" font-size="14.00">(None, None, None, 512)</text>
</g>
<!-- 1868900778440&#45;&gt;1868901029512 -->
<g id="edge14" class="edge"><title>1868900778440&#45;&gt;1868901029512</title>
<path fill="none" stroke="black" d="M196.5,-415.366C196.5,-407.152 196.5,-397.658 196.5,-388.725"/>
<polygon fill="black" stroke="black" points="200,-388.607 196.5,-378.607 193,-388.607 200,-388.607"/>
</g>
<!-- 1868900918472 -->
<g id="node16" class="node"><title>1868900918472</title>
<polygon fill="none" stroke="black" points="14,-249.5 14,-295.5 379,-295.5 379,-249.5 14,-249.5"/>
<text text-anchor="middle" x="89.5" y="-268.8" font-family="Times New Roman,serif" font-size="14.00">block5_conv1: Conv2D</text>
<polyline fill="none" stroke="black" points="165,-249.5 165,-295.5 "/>
<text text-anchor="middle" x="193" y="-280.3" font-family="Times New Roman,serif" font-size="14.00">input:</text>
<polyline fill="none" stroke="black" points="165,-272.5 221,-272.5 "/>
<text text-anchor="middle" x="193" y="-257.3" font-family="Times New Roman,serif" font-size="14.00">output:</text>
<polyline fill="none" stroke="black" points="221,-249.5 221,-295.5 "/>
<text text-anchor="middle" x="300" y="-280.3" font-family="Times New Roman,serif" font-size="14.00">(None, None, None, 512)</text>
<polyline fill="none" stroke="black" points="221,-272.5 379,-272.5 "/>
<text text-anchor="middle" x="300" y="-257.3" font-family="Times New Roman,serif" font-size="14.00">(None, None, None, 512)</text>
</g>
<!-- 1868901029512&#45;&gt;1868900918472 -->
<g id="edge15" class="edge"><title>1868901029512&#45;&gt;1868900918472</title>
<path fill="none" stroke="black" d="M196.5,-332.366C196.5,-324.152 196.5,-314.658 196.5,-305.725"/>
<polygon fill="black" stroke="black" points="200,-305.607 196.5,-295.607 193,-305.607 200,-305.607"/>
</g>
<!-- 1868901121672 -->
<g id="node17" class="node"><title>1868901121672</title>
<polygon fill="none" stroke="black" points="14,-166.5 14,-212.5 379,-212.5 379,-166.5 14,-166.5"/>
<text text-anchor="middle" x="89.5" y="-185.8" font-family="Times New Roman,serif" font-size="14.00">block5_conv2: Conv2D</text>
<polyline fill="none" stroke="black" points="165,-166.5 165,-212.5 "/>
<text text-anchor="middle" x="193" y="-197.3" font-family="Times New Roman,serif" font-size="14.00">input:</text>
<polyline fill="none" stroke="black" points="165,-189.5 221,-189.5 "/>
<text text-anchor="middle" x="193" y="-174.3" font-family="Times New Roman,serif" font-size="14.00">output:</text>
<polyline fill="none" stroke="black" points="221,-166.5 221,-212.5 "/>
<text text-anchor="middle" x="300" y="-197.3" font-family="Times New Roman,serif" font-size="14.00">(None, None, None, 512)</text>
<polyline fill="none" stroke="black" points="221,-189.5 379,-189.5 "/>
<text text-anchor="middle" x="300" y="-174.3" font-family="Times New Roman,serif" font-size="14.00">(None, None, None, 512)</text>
</g>
<!-- 1868900918472&#45;&gt;1868901121672 -->
<g id="edge16" class="edge"><title>1868900918472&#45;&gt;1868901121672</title>
<path fill="none" stroke="black" d="M196.5,-249.366C196.5,-241.152 196.5,-231.658 196.5,-222.725"/>
<polygon fill="black" stroke="black" points="200,-222.607 196.5,-212.607 193,-222.607 200,-222.607"/>
</g>
<!-- 1868901458952 -->
<g id="node18" class="node"><title>1868901458952</title>
<polygon fill="none" stroke="black" points="14,-83.5 14,-129.5 379,-129.5 379,-83.5 14,-83.5"/>
<text text-anchor="middle" x="89.5" y="-102.8" font-family="Times New Roman,serif" font-size="14.00">block5_conv3: Conv2D</text>
<polyline fill="none" stroke="black" points="165,-83.5 165,-129.5 "/>
<text text-anchor="middle" x="193" y="-114.3" font-family="Times New Roman,serif" font-size="14.00">input:</text>
<polyline fill="none" stroke="black" points="165,-106.5 221,-106.5 "/>
<text text-anchor="middle" x="193" y="-91.3" font-family="Times New Roman,serif" font-size="14.00">output:</text>
<polyline fill="none" stroke="black" points="221,-83.5 221,-129.5 "/>
<text text-anchor="middle" x="300" y="-114.3" font-family="Times New Roman,serif" font-size="14.00">(None, None, None, 512)</text>
<polyline fill="none" stroke="black" points="221,-106.5 379,-106.5 "/>
<text text-anchor="middle" x="300" y="-91.3" font-family="Times New Roman,serif" font-size="14.00">(None, None, None, 512)</text>
</g>
<!-- 1868901121672&#45;&gt;1868901458952 -->
<g id="edge17" class="edge"><title>1868901121672&#45;&gt;1868901458952</title>
<path fill="none" stroke="black" d="M196.5,-166.366C196.5,-158.152 196.5,-148.658 196.5,-139.725"/>
<polygon fill="black" stroke="black" points="200,-139.607 196.5,-129.607 193,-139.607 200,-139.607"/>
</g>
<!-- 1868901654792 -->
<g id="node19" class="node"><title>1868901654792</title>
<polygon fill="none" stroke="black" points="0,-0.5 0,-46.5 393,-46.5 393,-0.5 0,-0.5"/>
<text text-anchor="middle" x="89.5" y="-19.8" font-family="Times New Roman,serif" font-size="14.00">block5_pool: MaxPooling2D</text>
<polyline fill="none" stroke="black" points="179,-0.5 179,-46.5 "/>
<text text-anchor="middle" x="207" y="-31.3" font-family="Times New Roman,serif" font-size="14.00">input:</text>
<polyline fill="none" stroke="black" points="179,-23.5 235,-23.5 "/>
<text text-anchor="middle" x="207" y="-8.3" font-family="Times New Roman,serif" font-size="14.00">output:</text>
<polyline fill="none" stroke="black" points="235,-0.5 235,-46.5 "/>
<text text-anchor="middle" x="314" y="-31.3" font-family="Times New Roman,serif" font-size="14.00">(None, None, None, 512)</text>
<polyline fill="none" stroke="black" points="235,-23.5 393,-23.5 "/>
<text text-anchor="middle" x="314" y="-8.3" font-family="Times New Roman,serif" font-size="14.00">(None, None, None, 512)</text>
</g>
<!-- 1868901458952&#45;&gt;1868901654792 -->
<g id="edge18" class="edge"><title>1868901458952&#45;&gt;1868901654792</title>
<path fill="none" stroke="black" d="M196.5,-83.3664C196.5,-75.1516 196.5,-65.6579 196.5,-56.7252"/>
<polygon fill="black" stroke="black" points="200,-56.6068 196.5,-46.6068 193,-56.6069 200,-56.6068"/>
</g>
</g>
</svg>
